<svg xmlns="http://www.w3.org/2000/svg" viewBox="0 0 361 505"><defs><style>.cls-1{fill:none;}.cls-2{fill:#844f4f;stroke:#844f4f;}.cls-2,.cls-3,.cls-5,.cls-6{stroke-miterlimit:10;}.cls-3{fill:#b3858d;stroke:#b3858d;stroke-width:4.49px;}.cls-4{fill:#ab9998;}.cls-5{fill:#ddc6ba;stroke-width:0.82px;}.cls-5,.cls-6{stroke:#ddc6ba;}.cls-6{fill:#bf9f93;stroke-width:0.85px;}</style></defs><g id="Layer_2" data-name="Layer 2"><g id="aimeept2"><rect class="cls-1" x="0.5" y="0.5" width="360" height="504"/><rect class="cls-2" x="0.5" y="0.5" width="360" height="504"/><path class="cls-3" d="M151.38,114.6c1.82-13.16,28.26-21.93,48.31-22.11,22.78-.2,50.77,10.58,64.41,33.16,16.73,27.7-4.56,45.95,11.15,81.07,13.75,30.75,37.81,34.05,35.92,51.58-2.08,19.29-33.47,36.26-60.7,35.62-46.23-1.08-86.78-53.06-81.75-89.66,2.77-20.19,18.23-27,14.86-45.45C179.16,134.65,149.37,129.08,151.38,114.6Z"/><path class="cls-4" d="M173.06,414a135.76,135.76,0,0,1-2.72-23.36q-.14-2.94-.13-5.89c0-2,0-3.92,0-5.88.05-3.92.27-7.83.56-11.73s.73-7.79,1.1-11.68l.57-5.83.43-5.84a184.07,184.07,0,0,0-.1-23.37c-.52-7.78-1.42-15.46-2.59-23.14s-2.65-15.37-3.47-23.22a99.51,99.51,0,0,1,.08-23.71c.24-2,.7-3.91,1-5.85s1-3.83,1.49-5.74,1.29-3.73,2-5.58,1.57-3.6,2.39-5.38l.31.12a91.66,91.66,0,0,0-4.61,22.71,120.07,120.07,0,0,0,.84,23c.21,1.92.48,3.85.71,5.77l.8,5.78c.52,3.86,1.07,7.74,1.54,11.63.24,1.95.48,3.9.65,5.86s.35,3.91.45,5.88.16,3.93.19,5.89l0,2.95,0,2.94c-.06,7.84-.43,15.65-.65,23.47-.13,3.9-.17,7.82-.22,11.73l-.19,11.71c-.09,3.9-.24,7.79-.38,11.67-.09,2-.14,3.89-.17,5.83s-.12,3.89-.12,5.83c-.11,7.77.09,15.53.48,23.35Z"/><path class="cls-4" d="M190,160.63a66.6,66.6,0,0,1,5.73-5.15c2-1.65,4-3.19,6.06-4.76,4.06-3.14,8.25-6.14,12.53-9,2.14-1.43,4.3-2.83,6.46-4.22s4.37-2.71,6.57-4l3.3-2a38.41,38.41,0,0,1,3.48-1.9,18.63,18.63,0,0,1,3.93-1.36,21.27,21.27,0,0,1,4.07-.47l2.18-.07-.76,2q-2.21,5.84-4.32,11.75L235,153.33c-1.44,3.94-2.93,7.88-4.46,11.78S227.59,173,226,176.86s-3.19,7.79-5.09,11.57a66,66,0,0,1-6.82,10.74c-1.31,1.69-2.73,3.28-4.18,4.84s-3,3-4.6,4.42c-3.17,2.83-6.48,5.47-9.88,8l-5.1,3.71c-1.75,1.24-3.26,2.38-4.88,3.77a35.63,35.63,0,0,1-5.34,3.89,11.74,11.74,0,0,1-3.47,1.27,7.94,7.94,0,0,1-4-.31,8.93,8.93,0,0,1-1.77-.82,15.37,15.37,0,0,1-1.51-1.1,10.45,10.45,0,0,1-2.32-3,19.27,19.27,0,0,1-1.86-6.63,44.8,44.8,0,0,1-.23-6.53,62.68,62.68,0,0,1,.52-6.41,57.22,57.22,0,0,1,3.11-12.47,68.93,68.93,0,0,1,5.59-11.45A89.47,89.47,0,0,1,181.57,170,124.59,124.59,0,0,1,190,160.63Zm.23.23a90,90,0,0,0-8.1,9.56,78.5,78.5,0,0,0-6.48,10.66,67.91,67.91,0,0,0-6.85,23.54,55.93,55.93,0,0,0-.05,12.13,17.28,17.28,0,0,0,1.54,5.41,7.08,7.08,0,0,0,1.5,2c.35.24.67.55,1,.75a4.85,4.85,0,0,0,1.06.5,5.85,5.85,0,0,0,4.66-.67,33,33,0,0,0,4.86-3.42c.82-.65,1.65-1.32,2.53-2s1.75-1.23,2.62-1.83l5.13-3.58c3.4-2.42,6.74-4.87,9.92-7.51a83.94,83.94,0,0,0,8.91-8.57c5.48-6.17,9.4-13.64,12.57-21.35,1.6-3.86,3-7.8,4.47-11.74s2.78-7.88,4-11.9L237,140.77c1.17-4,2.39-8.06,3.8-12l1.42,1.94a23.91,23.91,0,0,0-3.55.47,15.78,15.78,0,0,0-3.31,1.18c-2.16,1-4.38,2.39-6.62,3.64l-13.45,7.41q-6.69,3.75-13.08,8A78.78,78.78,0,0,0,190.21,160.86Z"/><path class="cls-4" d="M145.28,276.19l-3.86-5.84q-1.93-2.91-3.84-5.86c-2.57-3.91-5-7.91-7.23-12.06a81.58,81.58,0,0,1-5.69-13,55.94,55.94,0,0,1-2.71-14c0-1.2-.08-2.4-.06-3.59l.2-3.59c.13-1.18.31-2.36.47-3.55s.45-2.33.68-3.5a87.71,87.71,0,0,1,4.28-13.48C131,189,135.19,180.65,138.75,172l.35-.84.63.68a18,18,0,0,1,4.09,8,68.47,68.47,0,0,1,1.3,8.75,71.06,71.06,0,0,0,1.47,8.47c.64,2.8,1.4,5.57,2.3,8.31,1.79,5.47,3.85,10.89,5.85,16.4,1,2.75,1.95,5.54,2.8,8.37a73.19,73.19,0,0,1,2.11,8.65,164.07,164.07,0,0,1,2.07,17.51c.25,2.9.43,5.79.71,8.67.13,1.44.26,2.88.42,4.31.07.72.18,1.43.26,2.15l.13,1.06c.06.34.1.66.17,1,.53,2.79,1.36,5.75,1.13,8.9a6.74,6.74,0,0,1-1.88,4.45c-.32.27-.67.5-1,.74l-1.11.49a4.28,4.28,0,0,1-2.48,0,11.52,11.52,0,0,1-4-2.2,28.72,28.72,0,0,1-3.26-3A50.89,50.89,0,0,1,145.28,276.19Zm.28-.18a44.9,44.9,0,0,0,5.65,6.59,29.9,29.9,0,0,0,3.32,2.75,10.32,10.32,0,0,0,3.76,1.76,3.08,3.08,0,0,0,1.82-.14l.86-.46c.23-.21.49-.4.71-.61a5.14,5.14,0,0,0,1.12-3.54c0-2.7-1-5.4-1.81-8.26a137.66,137.66,0,0,1-2.62-17.46c-.57-5.79-1.19-11.53-2.2-17.16a119.06,119.06,0,0,0-4.52-16.6c-1.83-5.49-3.89-11-5.48-16.65-.81-2.84-1.49-5.72-2-8.62a72.71,72.71,0,0,1-1-8.81,60.12,60.12,0,0,0-.8-8.58,15.85,15.85,0,0,0-3.45-7.55l1-.16c-3.82,8.52-8,16.9-10.88,25.73a87.35,87.35,0,0,0-3.38,13.4,59.21,59.21,0,0,0-.67,13.61c.63,9,3.43,17.91,7.08,26.4,1.85,4.24,4,8.38,6.23,12.46,1.15,2,2.36,4,3.57,6Z"/><path class="cls-4" d="M180.38,241.15a49.94,49.94,0,0,1,4.62-6.3,52.89,52.89,0,0,1,5.6-5.5,82.6,82.6,0,0,1,13.11-8.66c4.57-2.56,9.22-4.85,13.71-7.35s8.93-5.14,13.33-7.87c2.2-1.35,4.41-2.71,6.58-4.11L239,200.3a7.05,7.05,0,0,1,2.06-1,3.66,3.66,0,0,1,1.33-.1,4.08,4.08,0,0,1,1.26.37,4.6,4.6,0,0,1,1.79,1.64,9,9,0,0,1,1.3,4.06c.13,1.3.28,2.6.39,3.91l.26,3.92.1,3.92c.06,10.44-1.77,21.05-6.59,30.51a54.48,54.48,0,0,1-9.13,13,81.36,81.36,0,0,1-12.06,10.27,91.12,91.12,0,0,1-13.75,7.92,100.28,100.28,0,0,1-14.87,5.44c-2.54.71-5.09,1.32-7.68,1.87a34.91,34.91,0,0,1-4,.64l-1.05.07c-.35,0-.73,0-1.09,0a5.48,5.48,0,0,1-1.12-.1,7,7,0,0,1-1.16-.22,10.16,10.16,0,0,1-1.17-.41,9.08,9.08,0,0,1-1.13-.67,9.5,9.5,0,0,1-1-.94,11.92,11.92,0,0,1-.71-1.09,10.64,10.64,0,0,1-.88-4.41,42.22,42.22,0,0,1,.89-8c.93-5.13,2-10.26,3.44-15.29a73.48,73.48,0,0,1,2.5-7.42A42.85,42.85,0,0,1,180.38,241.15Zm.28.18a46.79,46.79,0,0,0-5.39,14.48,136.57,136.57,0,0,0-2.14,15.37,48.34,48.34,0,0,0-.27,7.55,8,8,0,0,0,.79,3.14,2.76,2.76,0,0,0,2,1.42,10.83,10.83,0,0,0,3.33,0,34.79,34.79,0,0,0,3.64-.64c2.48-.58,5-1.23,7.43-1.95a99,99,0,0,0,27.82-12.53,90.37,90.37,0,0,0,11.94-9.57,55.18,55.18,0,0,0,9.42-12,52.35,52.35,0,0,0,5.62-14.27,61,61,0,0,0,1.49-15.36c0-1.29-.15-2.58-.22-3.87l-.41-3.85-.63-3.81a7.35,7.35,0,0,0-1.22-3.25,2.05,2.05,0,0,0-2.31-.94,15.51,15.51,0,0,0-2.95,1.94c-2.12,1.53-4.23,3.06-6.4,4.52a147.55,147.55,0,0,1-13.44,8.12c-1.16.61-2.32,1.21-3.5,1.8s-2.37,1.12-3.55,1.66c-2.37,1.1-4.76,2.1-7.11,3.18A76,76,0,0,0,191.13,230a43.36,43.36,0,0,0-5.79,5.13A46.23,46.23,0,0,0,180.66,241.33Z"/><path class="cls-4" d="M123.18,293.61q-1.73-2.67-3.23-5.47c-1-1.84-2-3.74-2.9-5.66a75.5,75.5,0,0,1-4.56-12,39.72,39.72,0,0,1-1.29-6.37,33.64,33.64,0,0,1-.07-6.58,40,40,0,0,1,1.19-6.45,55.09,55.09,0,0,1,2.17-6.14l.35-.85.91-.06a7,7,0,0,1,3.3.61,7.18,7.18,0,0,1,2.55,2.07,19.49,19.49,0,0,1,2.6,5.09q2,5,4.08,9.9a197.77,197.77,0,0,0,9.28,19.3A180.35,180.35,0,0,0,149,299.13c4.15,5.79,8.48,11.5,12.35,17.6q1.47,2.28,2.83,4.62l.69,1.17a9.83,9.83,0,0,0,.65,1l1.58,2.16a29.26,29.26,0,0,1,3,4.86,9.79,9.79,0,0,1,.88,3.13,5.27,5.27,0,0,1-1.08,3.75,5.44,5.44,0,0,1-1.47,1.29,3.55,3.55,0,0,1-2.54.39,6.39,6.39,0,0,1-1.72-.61,10.89,10.89,0,0,1-1.35-.79,31.25,31.25,0,0,1-4.33-3.65c-1.31-1.28-2.56-2.61-3.78-3.88l-.89-.89-1-.92-1.94-1.85A177.22,177.22,0,0,1,123.18,293.61Zm.28-.18a92.26,92.26,0,0,0,13.7,16.38c5.1,5,10.58,9.52,15.9,14.3l2,1.79,1,.9c.37.32.7.66,1,1,1.28,1.28,2.51,2.54,3.78,3.73a36.27,36.27,0,0,0,3.88,3.23,5.63,5.63,0,0,0,1.76.87c.2,0,.18,0,.05.07a2.5,2.5,0,0,0,.54-.47,1.73,1.73,0,0,0,.33-1.29,6.37,6.37,0,0,0-.54-2,25.51,25.51,0,0,0-2.52-4.33l-1.54-2.21a14.69,14.69,0,0,1-.79-1.27l-.64-1.16c-.86-1.55-1.74-3.08-2.66-4.6-3.66-6.06-7.71-11.95-11.48-18.07s-7.25-12.4-10.61-18.72-6.58-12.72-9.86-19.1c-1.63-3.19-3.21-6.41-4.77-9.63a18.11,18.11,0,0,0-2.51-4.3A3.92,3.92,0,0,0,116,247l1.26-.91a52,52,0,0,0-2,5.82,38.56,38.56,0,0,0-.89,18.18,66.85,66.85,0,0,0,3.44,12.07c.76,2,1.64,3.88,2.57,5.76S122.34,291.65,123.46,293.43Z"/><path class="cls-4" d="M191.06,304.61c7.79-7.28,17.61-11.92,26.18-17.9A122.4,122.4,0,0,0,229.49,277a68.68,68.68,0,0,0,5.38-5.55c1.63-2,3.29-4.08,4.95-6.13a64.23,64.23,0,0,1,11.37-11.4c1.1-.79,2.21-1.56,3.37-2.25a18.75,18.75,0,0,1,1.82-1,2.49,2.49,0,0,1,2.6.26,4.07,4.07,0,0,1,1.24,2c.21.74.31,1.31.47,2l.88,3.87c1.2,5.15,2.34,10.41,2.22,15.81a33.31,33.31,0,0,1-1.16,8,41.73,41.73,0,0,1-2.92,7.54,68.9,68.9,0,0,1-8.87,13.42,119.05,119.05,0,0,1-11,11.68A94.15,94.15,0,0,1,227.09,325a75,75,0,0,1-14.5,7.25,73.77,73.77,0,0,1-15.74,3.81,39.75,39.75,0,0,1-8.2.4,17,17,0,0,1-4.23-.87,9.41,9.41,0,0,1-3.74-2.54,8.88,8.88,0,0,1-1.84-4.05,15.59,15.59,0,0,1-.08-4.2,21.61,21.61,0,0,1,2.43-7.75A46.92,46.92,0,0,1,191.06,304.61Zm.23.25a50.53,50.53,0,0,0-5.29,5.85,32.91,32.91,0,0,0-4,6.76,20.26,20.26,0,0,0-1.74,7.47,13.26,13.26,0,0,0,.36,3.69,6.78,6.78,0,0,0,1.64,3,7,7,0,0,0,2.92,1.62,16.09,16.09,0,0,0,3.58.46,46.26,46.26,0,0,0,7.59-.76,78.36,78.36,0,0,0,15-4,86,86,0,0,0,26.38-16.14,139.68,139.68,0,0,0,11.1-11.07,74.11,74.11,0,0,0,9.26-12.56,32.74,32.74,0,0,0,4.56-14.72c.27-5.21-.85-10.41-2.14-15.52-.31-1.28-.67-2.55-1-3.84-.17-.61-.34-1.33-.51-1.86a2.71,2.71,0,0,0-.86-1.31,1.06,1.06,0,0,0-1.15,0c-.45.24-1.05.68-1.57,1-1.07.73-2.1,1.53-3.09,2.35A64.31,64.31,0,0,0,242,267c-1.62,2.1-3.1,4.23-4.87,6.34a54.71,54.71,0,0,1-5.68,5.81,81.09,81.09,0,0,1-13.08,9.33c-4.62,2.73-9.41,5-14.08,7.46a75.11,75.11,0,0,0-6.8,4A55.14,55.14,0,0,0,191.29,304.86Z"/><path class="cls-5" d="M213.69,430.35C211.64,445,203.06,460,188.93,466.87c-17.27,8.35-34.45.43-35.36,0-14.22-6.83-22.85-21.86-25-36.52a47.53,47.53,0,0,1-.48-9.62,38.24,38.24,0,0,1,1.66-9.55c5.39-17.06,21-18.06,25-38.83,1.49-7.76-.07-17.92,5.55-20.81,1.66-.85,4.41-1,9.93-1.14,5.31-.18,8-.27,9.49.45,5.57,2.63,3.79,13.21,5.55,21.5,4.4,20.83,21.18,21.49,27,38.83a36.83,36.83,0,0,1,1.82,9.55A47.36,47.36,0,0,1,213.69,430.35Z"/><path class="cls-6" d="M213.69,430.35H128.55a47.53,47.53,0,0,1-.48-9.62h86A47.36,47.36,0,0,1,213.69,430.35Z"/></g></g></svg>