<svg xmlns="http://www.w3.org/2000/svg" viewBox="0 0 595.28 841.89"><defs><style>.cls-1{fill:none;}.cls-2{fill:#c1bfb6;}.cls-3{fill:#a68380;}.cls-4{fill:#91888a;}</style></defs><g id="Layer_2" data-name="Layer 2"><g id="background"><rect class="cls-1" width="595.28" height="841.89"/><rect class="cls-2" width="595.28" height="841.89"/><path class="cls-3" d="M108.61,661C151,594.17,196,566.83,229.53,554.28c64.25-24,90.34,4.75,149.83-26.49,49.55-26,41.8-51.42,114.23-96.85,39.22-24.59,53.81-24.87,65.4-46.35,17.4-32.28-5.32-50.57,11.59-106.79,7.63-25.37,23.9-60.36,24.7-62.34h0V841.89H108.61Z"/><path class="cls-4" d="M19.06,403.61s128.73-15.95,166,103,168,128.29,168,128.29,164.11,48.51,182.76,111.94,59.45,95,59.45,95H0v-439Z"/></g></g></svg>