<svg xmlns="http://www.w3.org/2000/svg" viewBox="0 0 720.9 577"><defs><style>.cls-1,.cls-15{fill:none;}.cls-2{fill:#bfaca3;stroke:#231f20;}.cls-15,.cls-2,.cls-22,.cls-9{stroke-miterlimit:10;}.cls-3{fill:#efc0a0;}.cls-4{fill:#7c5e44;}.cls-11,.cls-4{opacity:0.27;}.cls-5{fill:#b0766b;}.cls-6{fill:#a78466;opacity:0.09;}.cls-11,.cls-12,.cls-7{fill:#a67458;}.cls-8{fill:#6b4e2d;opacity:0.15;}.cls-27,.cls-9{fill:#78483c;}.cls-9{stroke:#b0766b;opacity:0.2;}.cls-10,.cls-25,.cls-26{fill:#c78d71;}.cls-12{opacity:0.28;}.cls-13{fill:#00010d;}.cls-14,.cls-16{fill:#805d49;}.cls-14,.cls-18{opacity:0.12;}.cls-15{stroke:#78483c;stroke-width:0.25px;}.cls-17,.cls-18,.cls-19{fill:#5a3c31;}.cls-17{opacity:0.19;}.cls-19{opacity:0.13;}.cls-20{fill:#260101;}.cls-21{fill:#401d16;}.cls-22,.cls-23{fill:#dbb78d;}.cls-22{stroke:#dbb78d;}.cls-24{fill:#d29d7a;}.cls-25{opacity:0.3;}.cls-26{opacity:0.22;}</style></defs><g id="Layer_2" data-name="Layer 2"><g id="Layer_3" data-name="Layer 3"><rect class="cls-1" x="0.5" y="0.5" width="719.9" height="576"/><rect class="cls-2" x="72.45" y="-71.45" width="576" height="719.9" transform="translate(648.95 -71.95) rotate(90)"/><path class="cls-3" d="M74.48,390.69c.21,1.14,2,4.55,2.32,6.61,3.08,17.89,5.59,32.45,5.58,48.7,0,12,0,17.94-1.9,24.48-3.58,12.31-10.23,19.69-10.56,34.14a48.15,48.15,0,0,0,.41,7.57H178.91a251.89,251.89,0,0,0-6.47-57.51c-5.91-25.35-16.49-50.75-5.83-59.42,5.61-4.56,21-3,8.93-30.84S163.74,274,163.74,274a237.52,237.52,0,0,0-69,75.82C86.09,365,78.67,377.87,74.48,390.69Z"/><path class="cls-4" d="M150.17,246.53A63,63,0,0,0,158.26,259c5,6,12.05,9,16,11.57-1.91,1-5.31,4.05-7.11,5.74q-1.77,1.67-3.39,3.3c0,1.8.08,3.6.11,5.4l.09,2.79,0,.93c-7.62-9.37-16.73-17.79-24.36-27.16l.46-2S153.66,249,150.17,246.53Z"/><path class="cls-5" d="M129.83,446.05s-38.54-2-43.77-7.84-5,29.18-5,29.18,40.57,18.39,48.72,44.8h48.65s3.25-61.8-7-71.7S129.83,446.05,129.83,446.05Z"/><path class="cls-6" d="M99.58,345c-.2,1.31-.49,3.19-.78,5.47-3.53,27.58-5.57,43.53,1.82,54.66,10.43,15.68,37.54,18.69,60.39,21.23a49.67,49.67,0,0,1,5.37.68c0,.42-25.86.67-54.82-3.95-17-2.71-21.28-2.2-31.42-5.34-1.85-11.73-3-19.36-5.66-27.07C70.07,377.84,94.09,355.35,99.58,345Z"/><path class="cls-3" d="M153.77,244.84c-21.07,26-33.63,29.87-41.38,27.92-3.84-1-7.75-3.68-14.27-3-9.13,1-15.3,7.9-17.51,10.37-1.53,1.71-5.55,6.51-10.46,23a181.48,181.48,0,0,0-5.78,26.6s-30.53,68.77-30.86,94.78c-.22,16.71,32.11,18.59,32.11,18.59l85.46,5.05s22,10,30.68,2.67,5.17-21.32,5.17-21.32-.85-15.87-12.86-9.2c0,0-5.65,5.84-18.32,5.17s-49.36-2.67-49.36-2.67c-.74-.27-27.46-5.24-31.53-6.13-21.49-4.65,13.91-44.45,23.25-67.43.66-1.64,34-10.84,36.68-17.43s27-16.39,43-5.05c0,0-23.35-37-19.34-41.51s14.74-15.35,16.74-14.92S155.1,257.23,153.77,244.84Z"/><path class="cls-7" d="M280.34,253.58s-19.85,22.7-26.9,20.88-20.35-9.9-21.18-15.07c0,0,7.38,29.55-5.48,31.74s-49.27,35.42-48.22,43.51-9.14,25.92,4.87,44.59c0,0-3.62,23.14-2.16,36.57s-9.36,94.75,0,96.08c9.84,1.41,168.37,0,168.37,0s-2.88-45.55-5.78-51.77-6.22-20.33-12-28.21-23.23-27.43-22.4-33.62,1.25-21.13,6.22-25.69S280.34,253.58,280.34,253.58Z"/><path class="cls-8" d="M232.81,262.44a49.68,49.68,0,0,1,1.55,18.05c-.45,4.3-1.24,5.95-1.9,7-3.48,5.5-11.09,6.35-13.08,6.67C201,297.09,176.1,332,178.56,334.64c3,3.18,41-44.39,93.71-41.68,2.74.14,5,.39,6.72.62a36.36,36.36,0,0,1-.94-35.54s-7.14,6.17-17,14.09S232.81,262.44,232.81,262.44Z"/><path class="cls-5" d="M179.88,447s20.52,32.87,92.5,10.68c0,0,49.79-14.4,61.79-27,0,0,9,21.6,10.19,31.8s6.89,49.75,6.89,49.75H198s-16.95-17.3-19.55-25.76C177.55,483.42,179.88,447,179.88,447Z"/><path class="cls-9" d="M262.78,512.19s51-13.76,60.59-21.56-9.6,21.56-9.6,21.56Z"/><path class="cls-10" d="M341,438.52s21.8-40.44,17.42-54.29,6.65-48.34,6.65-48.34,29.44-38.18,24.18-50.46c0,0-7.71-18.56-10.84-20.35,0,0,23.49-7.32,31.64-16.59,10.93-12.46,44,47,44,47l-34.8,151.69S343.91,460.74,341,438.52Z"/><path class="cls-11" d="M378.4,265.12a54.59,54.59,0,0,0,33.4-18c6.19,23.91,2.31,38.07-2.75,46.72,0,0-1.6,2.74-18.14,23.3h0s-4.94-7-7-8.19S402.22,290.66,378.4,265.12Z"/><path class="cls-5" d="M341,438.52s10.52,14.47,45.18,11,36.84-7,36.84-7-7,13.61,3.51,32.46a52.61,52.61,0,0,1,5.27,37.17H345.24S334.87,444.66,341,438.52Z"/><path class="cls-12" d="M366.8,334.7s41.19,119.58,45.78,120c15.81,1.58,34.93-32,39.14-59,1.16-7.43,3-20.11-3.24-33.75-6.37-14-20.77-28.08-28.42-25.14-5.72,2.19-10,14.8-3.16,61.48q-5.19-12.27-10.16-25.52c-6.19-16.52-11.4-32.46-15.81-47.65Z"/><path class="cls-10" d="M456.61,302.49s15.95,15.71-.95,60.4c0,0-13,73.09-29.15,85.13,0,0-12,10.64-18.51-4.17s-32.39-87.48-32.39-87.48-7.4-12.44-4.62-15.23c0,0-16.51-13.22-17.7-22.4s0-8.63,0-8.63-1.1-1.23-.54-5.22a38.84,38.84,0,0,0,.54-5l-4-7.14s.21-8,2.73-7.76c0,0,2.31-.42,3.36,1.05s-2.59-6.51-1-9.24,7.19,2.52,7.19,2.52A138.13,138.13,0,0,0,372,295.24c5,6.3,10.71,9.23,11.34,13.22s6.92,11.75,7.34,14.27.63,10.07.63,10.07,4.62,9.45,4.41,15.95,23.08,57.08,23.08,57.08-2.94-45.53.42-63.16,11.38-31.3,16.37-50.9C439.31,277.14,456.61,302.49,456.61,302.49Z"/><path class="cls-10" d="M392.25,168s-25.7,1.7-30.62,22.38-7.19,33.27-7.19,33.27-2,7.42,1.88,16.78,11.71,23.21,16.39,24.68,24.19-3.37,32-10.9S415.24,242,415.63,235c0,0,5.86,2.73,10.15-4.29s2.73-24.59-5.85-17.56-8.64-14-8.64-14a15.54,15.54,0,0,1-6.29-8.71C403.44,184.54,392.25,168,392.25,168Z"/><path class="cls-13" d="M382.62,182.59s-18-8.7-21,7.77-9.16,34.81-9.16,34.81,7.15,33.25,21.13,40.09l4.83-.18c7.73,9,10,16.64,10.84,20.35a25.74,25.74,0,0,1,.65,5.36c0,7-3.1,11.38-4.87,15.26-6.51,14.23,3.46,26.46-3.59,32-2.58,2-4.26.66-7.4,2.87-5.43,3.82-6.32,12.08-6.05,19.14-6.6.63-7.59-.73-8-1.25a3.91,3.91,0,0,1-.72-2.44c0-5.95-4.87,4.11-4.87,4.11s-5.7-30.71-11.92-30.8.93-61.62-1.86-65.66-6.53-34.81-3.73-41,18.65-29.52,15.85-39.16,27.66-18.74,27.66-18.74c5.33-1,10.32.12,11.81,2.89C394.13,171.48,391.1,178.84,382.62,182.59Z"/><path class="cls-13" d="M353.71,201.28c3.71-5.26,7.52-10.43,11.34-15.61a19.57,19.57,0,0,1,3.35-3.59,7.78,7.78,0,0,1,4.68-1.82c3.42-.07,6.43,1.65,9.45,1.24l-.14.89a22.77,22.77,0,0,0-6.88-2.09c-1.19-.18-2.4-.28-3.61-.35a14.11,14.11,0,0,0-3.57.1,7.43,7.43,0,0,0-3.06,1.71c-.95.76-1.87,1.56-2.77,2.39a48.92,48.92,0,0,0-5,5.38,43.23,43.23,0,0,1,4.69-5.69c.86-.89,1.77-1.72,2.71-2.53a8.16,8.16,0,0,1,3.25-1.94,15.13,15.13,0,0,1,3.77-.24,30.76,30.76,0,0,1,3.71.31,23.69,23.69,0,0,1,7.18,2.1l1.39.69-1.54.21c-3.48.48-6.52-1.31-9.56-1.23a6.85,6.85,0,0,0-4.16,1.57,19.45,19.45,0,0,0-3.24,3.41C361.74,191.24,357.78,196.31,353.71,201.28Z"/><path class="cls-13" d="M391.14,168s22.07-5.59,36.68,38.54,8.08,70.25,8.08,70.25a7.78,7.78,0,0,0-4.43,3c-3.06,3.94-2,8.39-2.1,16.27-.13,8.57-.22,14.54-3.85,19.28s-7,3-11.17,8.3c-4.53,5.74-1.58,8.93-6,13.82-4.85,5.32-13.77,7.45-13.77,7.46h0s-7.46-22.44-3.42-28.35,21.76-34,17.72-42.63,6.77-39,6.77-39,6,3.27,8.77-2.94,6.75-25.06-4.47-18.91c0,0-8,13-6.28,14.87s-6.35-8.09-3.86-21.45-24.55-24.24-24.55-24.24S395.74,171.38,391.14,168Z"/><path class="cls-13" d="M412.29,210.74c3.44,5.83,6.82,11.84,8.3,18.79a29,29,0,0,1,.37,10.68,23,23,0,0,1-1.54,5.29,33.77,33.77,0,0,1-2.58,4.71c-1.92,2.94-4,5.54-5.7,8.28a49.3,49.3,0,0,0-4.29,8.75,52.76,52.76,0,0,0-2.58,9.51c-.29,1.63-.51,3.28-.64,4.95-.1.84-.11,1.68-.16,2.52a2.83,2.83,0,0,0,.18,1.15.86.86,0,0,0,.88.65,1,1,0,0,1-1.15-.49,3.23,3.23,0,0,1-.51-1.26c-.13-.86-.28-1.7-.35-2.55a44.52,44.52,0,0,1-.21-5.17,47.51,47.51,0,0,1,.47-5.17,42.65,42.65,0,0,1,1.1-5.11c.21-.85.5-1.67.76-2.51s.59-1.65.95-2.45a47,47,0,0,1,2.29-4.74c1.72-3.11,3.85-5.81,5.6-8.54a23.86,23.86,0,0,0,3.77-8.51,29.45,29.45,0,0,0,.28-9.48C416.75,223.6,414.24,217.26,412.29,210.74Z"/><path class="cls-13" d="M411.14,300.94c2.28,2.74,4.49,5.55,6.53,8.49a30.64,30.64,0,0,1,2.71,4.74,22,22,0,0,1,1.59,5.29,18,18,0,0,1,0,5.58,19.49,19.49,0,0,1-1.76,5.24A24.07,24.07,0,0,1,417.5,335a10.54,10.54,0,0,1-1.94,2,5,5,0,0,1-2.49,1.06,7.5,7.5,0,0,0,3.71-3.51,29.46,29.46,0,0,0,2.19-4.73,21,21,0,0,0,1.37-4.93,17.47,17.47,0,0,0-.14-5.05,27.35,27.35,0,0,0-3.71-9.58C414.69,307.13,412.81,304.11,411.14,300.94Z"/><path class="cls-13" d="M396.58,309a22.6,22.6,0,0,1,0-6.82,31,31,0,0,1,1.83-6.62,50,50,0,0,1,7-11.76c2.82-3.59,5.83-7,8.69-10.5a38.19,38.19,0,0,0,3.93-5.49,12.88,12.88,0,0,0,1.9-6.4A12.61,12.61,0,0,1,418.5,268a39.39,39.39,0,0,1-3.76,5.74c-2.76,3.63-5.78,7-8.51,10.63a52.38,52.38,0,0,0-7.11,11.45A28,28,0,0,0,396.58,309Z"/><path class="cls-13" d="M430,308.53a100.67,100.67,0,0,0,1.12-10,48.74,48.74,0,0,0-.9-10,31.1,31.1,0,0,1-.37-5.12,22,22,0,0,1,.79-5.07c.42-1.65.9-3.26,1.23-4.9a15.19,15.19,0,0,0,.34-5,14,14,0,0,1,.15,5.08c-.24,1.68-.64,3.33-1,5a25,25,0,0,0-.6,4.92,32,32,0,0,0,.42,5c.22,1.66.51,3.33.67,5a28.25,28.25,0,0,1,0,5.12A58,58,0,0,1,430,308.53Z"/><path class="cls-13" d="M391.72,180.55a8.9,8.9,0,0,0,.66,4.25,17.58,17.58,0,0,0,2.09,3.77,36.88,36.88,0,0,0,5.77,6.45,41.48,41.48,0,0,0,7.11,5,14.66,14.66,0,0,1,3.47,2.82,6.29,6.29,0,0,1,1.56,4.11,6.31,6.31,0,0,0-1.93-3.78,13.81,13.81,0,0,0-3.49-2.48c-1.28-.68-2.6-1.39-3.84-2.21a33.17,33.17,0,0,1-3.54-2.71,30.77,30.77,0,0,1-5.75-6.77,17.79,17.79,0,0,1-1.91-4A8.37,8.37,0,0,1,391.72,180.55Z"/><path class="cls-13" d="M359.73,197.06c1.84-1.57,3.73-3.05,5.57-4.58s3.65-3.08,5.34-4.75,3.2-3.48,4.84-5.28a16.33,16.33,0,0,1,2.74-2.44,6.91,6.91,0,0,1,3.43-1.17,7.28,7.28,0,0,0-3.14,1.57,15.93,15.93,0,0,0-2.45,2.54c-.74.93-1.47,1.88-2.24,2.82a34.82,34.82,0,0,1-2.48,2.67,49.37,49.37,0,0,1-5.57,4.65c-1,.7-2,1.39-3,2.06S360.78,196.45,359.73,197.06Z"/><path class="cls-13" d="M396.44,182.2a9.75,9.75,0,0,0,2.08,6.72,24.94,24.94,0,0,0,5.21,4.83,40.79,40.79,0,0,1,5.85,5.08,25.52,25.52,0,0,1,4.39,6.46c-2.07-1.6-4-3.21-6-4.72s-4-2.87-6.07-4.44a17.67,17.67,0,0,1-5.41-6,10.18,10.18,0,0,1-1.06-4A6.58,6.58,0,0,1,396.44,182.2Z"/><path class="cls-13" d="M358.62,190.07c.85,2.24,1.81,4.42,2.61,6.71a30.45,30.45,0,0,1,1.51,7.15,39.67,39.67,0,0,1-1.6,14.49,60.6,60.6,0,0,1-5.88,13.26,113.88,113.88,0,0,1-8.08,11.92c2.21-4.26,4.58-8.41,6.71-12.66a77.81,77.81,0,0,0,5.33-13.09,45.78,45.78,0,0,0,1.52-6.85,39.8,39.8,0,0,0,.44-7,35,35,0,0,0-.89-7C359.77,194.74,359,192.44,358.62,190.07Z"/><path class="cls-13" d="M392.42,172a13.7,13.7,0,0,0,3.33,2.45,26.85,26.85,0,0,0,3.8,1.67,43.46,43.46,0,0,1,7.76,3.32,23.91,23.91,0,0,1,6.36,5.62,25.77,25.77,0,0,1,2.32,3.55,22.32,22.32,0,0,1,1.59,3.9,28,28,0,0,0-2-3.65,25.12,25.12,0,0,0-2.49-3.31,27.29,27.29,0,0,0-6.29-5.25,60.83,60.83,0,0,0-7.53-3.47,25.83,25.83,0,0,1-3.76-2A12.21,12.21,0,0,1,392.42,172Z"/><path class="cls-13" d="M378.43,179.08a13,13,0,0,0-6.9,3.92,22.14,22.14,0,0,0-4.23,6.66c-1,2.46-1.93,5-2.84,7.65l-2.84,7.78c-2,5.16-3.95,10.29-6.16,15.39s-4.87,10.22-8.93,14.07c3.07-4.64,5-9.73,6.75-14.92.86-2.6,1.8-5.21,2.69-7.82l2.85-7.77,3-7.72a78.42,78.42,0,0,1,3.39-7.68,20.9,20.9,0,0,1,5.35-6.73A12.1,12.1,0,0,1,378.43,179.08Z"/><path class="cls-13" d="M384.75,180.42a95.42,95.42,0,0,0,5.94,8,59.88,59.88,0,0,0,6.72,6.88,25.36,25.36,0,0,0,3.66,2.77,19.81,19.81,0,0,0,4.24,1.73,14.12,14.12,0,0,1,4.89,2.41,7.18,7.18,0,0,1,1.76,2.19,5.42,5.42,0,0,1,.45,1.32,4.23,4.23,0,0,1,0,1.33,5.45,5.45,0,0,0-3.26-3.19,17.54,17.54,0,0,0-4.55-1c-.83-.12-1.7-.25-2.6-.47a13.64,13.64,0,0,1-2.7-1,21,21,0,0,1-4.51-3.1,31.73,31.73,0,0,1-6.67-8.12A25.91,25.91,0,0,1,384.75,180.42Z"/><path class="cls-13" d="M388.92,177.92a13.3,13.3,0,0,0,3.33,2.46A26.69,26.69,0,0,0,396,182a42.9,42.9,0,0,1,7.76,3.33,23.92,23.92,0,0,1,6.37,5.61,24.81,24.81,0,0,1,2.31,3.55,21.87,21.87,0,0,1,1.59,3.9,27.5,27.5,0,0,0-2-3.65,25.17,25.17,0,0,0-2.48-3.3,27.5,27.5,0,0,0-6.29-5.26,61.65,61.65,0,0,0-7.54-3.47,26.24,26.24,0,0,1-3.75-2A11.71,11.71,0,0,1,388.92,177.92Z"/><path class="cls-13" d="M386,180.14a13.51,13.51,0,0,0,3.33,2.45,26.73,26.73,0,0,0,3.79,1.67,42.85,42.85,0,0,1,7.76,3.32,24,24,0,0,1,6.37,5.62,24.81,24.81,0,0,1,2.31,3.55,21.57,21.57,0,0,1,1.59,3.9,26.89,26.89,0,0,0-2-3.65,26,26,0,0,0-2.48-3.31,27.72,27.72,0,0,0-6.29-5.25,59.54,59.54,0,0,0-7.54-3.47,26.24,26.24,0,0,1-3.75-2A12,12,0,0,1,386,180.14Z"/><path class="cls-13" d="M390.48,176.54a13.35,13.35,0,0,0,3.34,2.46,26.24,26.24,0,0,0,3.79,1.67,43.16,43.16,0,0,1,7.76,3.32,23.74,23.74,0,0,1,6.36,5.62,25.18,25.18,0,0,1,2.32,3.55,21.28,21.28,0,0,1,1.59,3.9,28.82,28.82,0,0,0-2-3.66,25.7,25.7,0,0,0-2.49-3.3,27.33,27.33,0,0,0-6.29-5.26,59.36,59.36,0,0,0-7.53-3.46,26.74,26.74,0,0,1-3.75-2A12.12,12.12,0,0,1,390.48,176.54Z"/><path class="cls-13" d="M436.32,322.77c.73-2.64,1.37-5.27,1.85-7.9a67,67,0,0,0,.94-7.9,51.67,51.67,0,0,0-1.26-15.37,40.51,40.51,0,0,0-2.43-7.13c-1-2.36-2.23-4.74-3.36-7.31a45.05,45.05,0,0,1-2.92-8.3,27,27,0,0,1-.57-9.38l7.88,1a59.23,59.23,0,0,0,0,8.82,33.71,33.71,0,0,1-.18,5.34,21.82,21.82,0,0,1-.57,2.83c-.12.48-.29.94-.44,1.41l-.38,1.09a68.62,68.62,0,0,0-3.64,17.5l-.73,9.39-.43,4.73-.23,2.37a22.86,22.86,0,0,1-.37,2.62,9.42,9.42,0,0,1-1.08,2.79,10.2,10.2,0,0,1-1.82,2.19,37.08,37.08,0,0,1-4,2.93c-2.64,1.77-5.28,3.53-8,5.2,2.1-2.4,4.29-4.71,6.47-7a41.78,41.78,0,0,0,3.07-3.38,6.38,6.38,0,0,0,.93-1.64,6,6,0,0,0,.31-1.71c.06-1.23-.12-2.89-.17-4.46l-.22-4.74c-.11-3.19-.25-6.27-.29-9.54a70.47,70.47,0,0,1,.62-9.9,60.68,60.68,0,0,1,2.21-9.78l.37-1.16c.07-.29.17-.56.24-.86a14.55,14.55,0,0,0,.29-1.81,27.68,27.68,0,0,0,.08-4.12,54,54,0,0,1,0-10.09l7.88,1a21.21,21.21,0,0,0,.26,6.77,43.36,43.36,0,0,0,2.15,7.12c.94,2.44,2,5,2.9,7.69a43.56,43.56,0,0,1,2,8.48,46.87,46.87,0,0,1-1,17,47.38,47.38,0,0,1-2.6,7.95A49.23,49.23,0,0,1,436.32,322.77Z"/><path class="cls-13" d="M383.85,177.69a13.35,13.35,0,0,0,3.34,2.46,25.14,25.14,0,0,0,3.79,1.66,43.93,43.93,0,0,1,7.76,3.33,23.87,23.87,0,0,1,6.36,5.61,26.38,26.38,0,0,1,2.32,3.55,22.42,22.42,0,0,1,1.59,3.91,28.82,28.82,0,0,0-2-3.66,25,25,0,0,0-2.49-3.3,27.33,27.33,0,0,0-6.29-5.26,60.83,60.83,0,0,0-7.53-3.47,26.68,26.68,0,0,1-3.75-2A12.12,12.12,0,0,1,383.85,177.69Z"/><path class="cls-13" d="M387.24,174.81a13.54,13.54,0,0,0,3.34,2.46,26.73,26.73,0,0,0,3.79,1.67,42.85,42.85,0,0,1,7.76,3.32,23.92,23.92,0,0,1,6.37,5.61,25.8,25.8,0,0,1,2.31,3.56,21.28,21.28,0,0,1,1.59,3.9,28.82,28.82,0,0,0-2-3.66,25.86,25.86,0,0,0-2.48-3.3,27.76,27.76,0,0,0-6.29-5.26,61.65,61.65,0,0,0-7.54-3.47,27.24,27.24,0,0,1-3.75-1.95A12.12,12.12,0,0,1,387.24,174.81Z"/><path class="cls-13" d="M386,177.69a13.3,13.3,0,0,0,3.33,2.46,25.6,25.6,0,0,0,3.79,1.66,43.62,43.62,0,0,1,7.76,3.33,23.92,23.92,0,0,1,6.37,5.61,25.38,25.38,0,0,1,2.31,3.55,21.67,21.67,0,0,1,1.59,3.91,27.62,27.62,0,0,0-2-3.66,25.86,25.86,0,0,0-2.48-3.3,27.76,27.76,0,0,0-6.29-5.26,61,61,0,0,0-7.54-3.47,27.24,27.24,0,0,1-3.75-2A11.91,11.91,0,0,1,386,177.69Z"/><path class="cls-13" d="M386,185.07a13,13,0,0,0,3.33,2.45,26.73,26.73,0,0,0,3.79,1.67,43.57,43.57,0,0,1,7.76,3.32,24.13,24.13,0,0,1,6.37,5.62,24.81,24.81,0,0,1,2.31,3.55,21.87,21.87,0,0,1,1.59,3.9,27.5,27.5,0,0,0-2-3.65,26,26,0,0,0-2.48-3.31,27.72,27.72,0,0,0-6.29-5.25,61,61,0,0,0-7.54-3.47,26.24,26.24,0,0,1-3.75-2A11.87,11.87,0,0,1,386,185.07Z"/><path class="cls-13" d="M359.73,206.81a13.61,13.61,0,0,0-1.65,3.8,26.35,26.35,0,0,0-.78,4.07,43.68,43.68,0,0,1-1.52,8.3,24.06,24.06,0,0,1-4.06,7.46,24.93,24.93,0,0,1-3,3,21.62,21.62,0,0,1-3.45,2.42,29.4,29.4,0,0,0,3.12-2.77,26.73,26.73,0,0,0,2.67-3.16,27.35,27.35,0,0,0,3.72-7.3,60.87,60.87,0,0,0,1.71-8.12,25.41,25.41,0,0,1,1.08-4.09A12,12,0,0,1,359.73,206.81Z"/><path class="cls-13" d="M381.65,177.92a13.35,13.35,0,0,0,3.34,2.46,26.2,26.2,0,0,0,3.79,1.66,43.2,43.2,0,0,1,7.76,3.33,23.92,23.92,0,0,1,6.37,5.61,26.65,26.65,0,0,1,2.31,3.55,21.87,21.87,0,0,1,1.59,3.9,28.69,28.69,0,0,0-2-3.65,24.39,24.39,0,0,0-2.49-3.3,27.24,27.24,0,0,0-6.28-5.26,61.65,61.65,0,0,0-7.54-3.47,25.72,25.72,0,0,1-3.75-2A11.9,11.9,0,0,1,381.65,177.92Z"/><path class="cls-14" d="M313.5,402.38s-84.81,8.93-89.37,16.66c-4.31,7.31-22.78,14.31-28.56,23.89-3.52,5.85,15,35.3,49.26,15.25,0,0,13.7-15.55,18.67-15,34.84,4,76.26-8.14,76.26-8.14S312,417.78,313.5,402.38Z"/><path class="cls-7" d="M335.94,287.19s37.85,103.18,26.33,134.65c0,0-24.37,18.61-44.76,19.05S263,439.12,263,439.12s-9.3,15.51-18.17,19.06c-.59,2.88-2.49,10-8.21,13.08-1.19.65-3.38,1.26-7.76,2.48-5.93,1.65-6.75,1.38-7.1.95-.93-1.14.55-4.46,2.77-6.6,3.25-3.13,6.3-2.07,9.08-4.84,1.21-1.2,2.56-3.31,2.8-7.29a85.22,85.22,0,0,0-10,6.45s-9.23,11.88-12.43,10.76c-2.16-.75-3.32-5-3.32-5s12.07-15.32,16.1-16.57c0,0-7.37,1.24-14.66,8.16-7.83,7.45-10.69-1.16-10.69-1.16a65,65,0,0,1,5.12-6.61c2.61-2.84,13.13-11,13.13-11l-11.37,9.71s-6.86,4.5-7.34,9.94-9.23-3.79-2.36-10.65,28.65-32,43.8-34.34,24.39-4.73,24.39-4.73,53.76-10.9,55.41-9-13.49-22.26-16.57-42.62-25.24-55-25.24-55c-7-16-9.53-32.66-2.53-39.13C286.53,257.1,311.57,263.4,335.94,287.19Z"/><path class="cls-7" d="M240,416.17s-7.55-1.75-24,12.55c0,0-.91,3-7,2.25,0,0-3,4.92,4.35,4S240,416.17,240,416.17Z"/><path class="cls-15" d="M349.64,402.24c-4.45-1.54-8.95-3.1-13.64-3.54s-9.65.32-13.48,3.07c-.13.1-.28.22-.29.39s.26.3.34.15"/><path class="cls-10" d="M302.68,276a7,7,0,0,1,9,3.47s1.41,17.27,6.59,22.45S329,316.5,329,316.5l2.46,6.6s5,.64,3.33-5.75l2.19-1.86s-.17,7.51,1.68,7.63,5.22-1.23,5.05-4.26,3,4.71,3.37,8.09,4.29,0,4.29,0,2.29-8.45,1.2-10.15a23.87,23.87,0,0,1,1.63,9.48,3.82,3.82,0,0,0,4.37-1.36c1.71-2.37,0-13.87,0-13.87s-3.9-12.85-6-14.88c0,0-4.38-9.47-16.6-16.58,0,0-7.49-10.82-19.33-13.86s-18.27,0-18.27,0Z"/><path class="cls-13" d="M349.25,337.87c.73-2.65,1.37-5.27,1.85-7.91a66.45,66.45,0,0,0,.94-7.9,51.67,51.67,0,0,0-1.26-15.37,40.79,40.79,0,0,0-2.43-7.13c-1-2.36-2.23-4.74-3.36-7.31a45.21,45.21,0,0,1-2.92-8.29,27.06,27.06,0,0,1-.57-9.39l7.88,1a59.1,59.1,0,0,0,0,8.81,33.68,33.68,0,0,1-.18,5.34,24.2,24.2,0,0,1-.57,2.84c-.12.47-.29.93-.44,1.4l-.38,1.09a68.62,68.62,0,0,0-3.64,17.5l-.73,9.4-.43,4.72-.23,2.37a21,21,0,0,1-.38,2.62,8.93,8.93,0,0,1-1.07,2.79,10.2,10.2,0,0,1-1.82,2.19,37.08,37.08,0,0,1-4,2.93c-2.64,1.77-5.28,3.54-8,5.21,2.1-2.41,4.29-4.72,6.47-7a43.49,43.49,0,0,0,3.07-3.37,6.42,6.42,0,0,0,.93-1.65,6,6,0,0,0,.31-1.71c.06-1.23-.12-2.89-.17-4.46l-.22-4.74c-.11-3.19-.25-6.26-.29-9.54a70.24,70.24,0,0,1,.62-9.89,60.56,60.56,0,0,1,2.21-9.79l.37-1.16c.07-.29.17-.56.24-.86a14.55,14.55,0,0,0,.29-1.81,27.68,27.68,0,0,0,.08-4.12,54,54,0,0,1,0-10.09l7.88,1a21.16,21.16,0,0,0,.26,6.76,43.07,43.07,0,0,0,2.15,7.12c.94,2.44,2,5,2.9,7.69a44.3,44.3,0,0,1,2,8.48,49.42,49.42,0,0,1-3.6,24.93A49.83,49.83,0,0,1,349.25,337.87Z"/><path class="cls-16" d="M473.43,210s3.27,30.46-8.37,30.46-27.71,6.7-27.71,6.7-3.4,45,15.54,53.49-.22,77.24-.22,77.24S447.14,410,443,411.62s52.59-2.52,52.59-2.52S552,284.33,541.85,272.68s-24.71-49.23-22.3-51.32S485.45,238.59,473.43,210Z"/><path class="cls-17" d="M473.6,211.24c.09.95,1.56,18.12-2.42,24.93a8.78,8.78,0,0,1-4.3,4.16c-1.48.56-1.81,0-5.07.25,0,0-1.26.09-7.54,1.26h0s3,15,17,10.26,24,8.41,39.58,4-1.46-26.85,6.29-33.61C519.36,220.55,485.15,240.2,473.6,211.24Z"/><path class="cls-5" d="M445.88,405.63s46.46.41,49-2.5,42.2,4.65,47.37,33.36,0,61.44,0,61.44-2.59,12.56-5.17,14.17H431.82s2.82-28.61-7.1-40.77v-22S435.76,445.68,445.88,405.63Z"/><path class="cls-18" d="M439.64,430.56s11.86,22.75,6.88,50.33c0,0-.67,13,6.37,20.55l-3.24,10.66H431.82s4.74-26.53-7.1-40.77c0,0-2-19.75,1.79-23.31S439.64,430.56,439.64,430.56Z"/><path class="cls-19" d="M527.5,248.49s41.75,13.23,28.67,65c0,0-7.54,56.8-18.1,74.93s-14.59,30.2-19.62,35.23S471.17,510,472.17,512.1s-25.65,0-25.65,0l22.3-51.19s16.43-57.42,28.5-62.41c0,0,11.07-104.08,14.09-105.09S527.5,248.49,527.5,248.49Z"/><path class="cls-16" d="M527.91,248.09s46.5,14.89,31,65.44c0,0-7.54,56.8-18.11,74.93s-14.58,30.2-19.61,35.23S474,510,475,512.1s-25.65,0-25.65,0l22.3-51.19S488,403.49,500.1,398.5c0,0,11.07-104.08,14.09-105.09S527.91,248.09,527.91,248.09Z"/><path class="cls-16" d="M533.47,148.32s-36.79-12.93-57.67,31.82c0,0-14.91,30.32,11.44,45.74,0,0,21.87,3.39,32.31-4.52s29.34-39.14,24.36-53.61S533.47,148.32,533.47,148.32Z"/><path class="cls-20" d="M561.24,121.73s-9.41-25.88-31.18-25.88S493,91.73,475.93,114.67s-25.3,27.66-26.48,35.89S443,172,443,172s9.42,17.46,12.95,33.63,10,11.09,10,11.09-5.89,14.79.59,17.88,7.19-23.81,7.19-23.81-5-72.62,59.76-62.42c0,0,23.48,17.45-13.92,73,0,0-22.44,12.49-2.43,27,0,0,18.32,1.49,20.59-4.79,2.07-5.71-11.77-48.4,18.83-55.42s36.32-6.25,44,5.39,9.57-31.83,2.51-33-12.95-18.83-12.95-18.83-7.06-18.83-20-16.48S561.24,121.73,561.24,121.73Z"/><path class="cls-7" d="M130.86,230s-34.27-12.05-47,2.32,10.1,37.49,10.1,37.49,14.1-.9,24.06,10.31c0,0,6.4,4.14,8.27,10.16s1.69,30.53,7.54,41.58,9.4,9.37,9.4,9.37,9.16,5.54,12,4.58,6.38,7.42,9.53,7.9a4.41,4.41,0,0,0,4.53-2.39s-5.21-12.18-7.12-13.27-1-19.71-1-19.71,3.35,13.82,6.71,21.49,3.59,17,7.9,17.48,1.95-18-1.54-23.47-1.91-21-1.91-21a25.92,25.92,0,0,0,5.15,9.15c.4.44,5,5.59,6.79,4.57.65-.37.74-1.43.71-2.57a24.11,24.11,0,0,0-3.84-11.7c-6.22-9-9.33-13.46-10.42-14.81-6.93-8.59-12.89-17.91-19.37-26.84h0S130,251.13,130.86,230Z"/><path class="cls-7" d="M255,183.82s-15.81-9.1-27.52,26.34,4.14,57.11,23.17,63.45S286.06,243,286.06,243,276.83,171,255,183.82Z"/><path class="cls-21" d="M259.83,184.53s4.41-3.15,6.61,0,3.15,18.25,3.15,18.25a26.28,26.28,0,0,0,0,7.43c.95,6.87,4.6,10.61,6.89,14.28,5.88,9.44,4.8,20.4,3.46,34-1,10-2.49,8.4-3.31,17.34-.42,4.55-.37,8.66,3.62,34.27,1.53,9.75,2.8,17.33,2.31,27.78-.41,8.77-1.67,11.36-2.69,13-4.15,6.52-10.79,6.61-12.52,13.12-.83,3.12.42,4.14-1,7.81a33.1,33.1,0,0,1-4.65,7.55c7.21.18,11.13-1.87,13.39-3.78s3.45-4.34,8.14-8.34c3-2.59,2.77-1.79,4.37-3.38,4.85-4.82,5.58-10.54,6.51-17.85,0-.16.05-.38,0-.39-.39,0-4.55,41.49-19.48,39.4,0,0,9.77,2.63,14.09-4.31,0,0,11.21-4.88,5.42,1.69s-8.05,6.19-8.05,6.19,12.95.56,15.58-6.57,13.22-22.18,13.22-22.18,22,11,27.22,10.4S318.86,339,321.61,332s23.25,25.08,31.2,27.52A45.94,45.94,0,0,0,350.38,349c-1.27-3.51-2-4.16-2.57-6.93-1-5.31,1-6.48-.25-9.49-1.76-4.17-6.12-2.94-8.73-7.45-2.16-3.73.36-5.37-1.8-9.75-.58-1.19-1.36-2.28-8.47-8.22-4.65-3.88-4.71-3.75-5.91-4.84,0,0-4.54-4.13-12-22.94h0s-6.11-9.78-4.28-29.66c0,0,9.78-23.56-7.65-40.38,0,0-7.95-29.06-21.72-33.65a27.86,27.86,0,0,0-19.14-9s-24.73-8.42-38.49,15.46c0,0,8.43,12.92,8.15,28.09,0,0,6.18-26.41,24.44-26.41A33.33,33.33,0,0,1,259.83,184.53Z"/><path class="cls-21" d="M298,269.47a6.48,6.48,0,0,0-2.1,2c-.57.77-1.08,1.64-1.61,2.48-1.06,1.68-2.12,3.35-3.12,5.06-2.07,3.36-4,6.79-5.82,10.24a112,112,0,0,0-8.75,21.5,78.82,78.82,0,0,0-3,22.77A67.06,67.06,0,0,0,278,356.41a47.4,47.4,0,0,1-8.36-22.63,63.22,63.22,0,0,1,2.1-24.39,80.52,80.52,0,0,1,10.2-22.1,99.42,99.42,0,0,1,7.19-9.71c.66-.76,1.31-1.52,2-2.27s1.33-1.49,2-2.21,1.37-1.46,2.15-2.14A6.31,6.31,0,0,1,298,269.47Z"/><path class="cls-21" d="M291.13,354.75c-4.18-3.81-6.85-9.08-8.47-14.51a70,70,0,0,1-2.48-16.82q-.36-8.46,0-16.92t1.29-16.88l2.93.25a48.31,48.31,0,0,1-1.82,10.48c-.94,3.39-2.12,6.67-3.26,9.91s-2.24,6.47-3.05,9.73a38.19,38.19,0,0,0-1.23,9.89,39.93,39.93,0,0,0,1.47,9.91,59.15,59.15,0,0,0,3.53,9.54,98.47,98.47,0,0,0,4.83,9.06c1.78,2.95,3.65,5.84,5.54,8.73-2.18-2.68-4.28-5.42-6.26-8.26a87.07,87.07,0,0,1-5.52-8.83A48.1,48.1,0,0,1,272.55,330a39.64,39.64,0,0,1,1-10.6,91.66,91.66,0,0,1,3-10c2.24-6.52,4.47-13,4.88-19.61l2.93.25c-.66,5.54-1.15,11.1-1.51,16.67s-.51,11.16-.51,16.74a77.47,77.47,0,0,0,1.58,16.53A32.72,32.72,0,0,0,291.13,354.75Z"/><path class="cls-21" d="M357.3,357c-5.68-.08-11.28-2.33-16.09-5.49a55,55,0,0,1-6.81-5.33,81,81,0,0,1-6.06-6.09c-1.92-2.12-3.75-4.26-5.58-6.44s-3.54-4.43-5.26-6.69-3.39-4.55-5-6.89-3.16-4.71-4.68-7.11l4.89-3.26a48.71,48.71,0,0,1,5.3,9.58c1.41,3.3,2.55,6.63,3.66,9.87s2.2,6.42,3.53,9.41a37.5,37.5,0,0,0,4.94,8.27,38.06,38.06,0,0,0,7,6.77,58.8,58.8,0,0,0,8.45,5.38c5.95,3.21,12.42,5.62,18.87,8.14a99.36,99.36,0,0,1-20.2-5.27,57.44,57.44,0,0,1-9.52-4.81,43,43,0,0,1-8.38-7,40.85,40.85,0,0,1-6.09-9.15,89,89,0,0,1-4.1-9.8c-2.38-6.49-4.59-12.76-8.24-18l4.89-3.26q2.18,3.54,4.46,7c1.52,2.33,3,4.65,4.62,6.93s3.19,4.55,4.83,6.79,3.28,4.51,5,6.69,3.44,4.31,5.27,6.35a66,66,0,0,0,5.85,5.74A34,34,0,0,0,357.3,357Z"/><path class="cls-21" d="M295.62,317.27c-.72,3.28-1.87,6.45-2.9,9.61a64.58,64.58,0,0,0-2.58,9.5,65.84,65.84,0,0,0-.51,19.47A96.73,96.73,0,0,0,294,375c2,6.27,4.59,12.41,7.16,18.6a102,102,0,0,1-9.36-17.8,82.73,82.73,0,0,1-3.22-9.61,75.21,75.21,0,0,1-1.91-10,64.47,64.47,0,0,1-.31-10.21,50.56,50.56,0,0,1,5-19.64C292.78,323.3,294.28,320.34,295.62,317.27Z"/><path class="cls-21" d="M321.43,306.8a97.59,97.59,0,0,1-2.91,9.6,63.65,63.65,0,0,0-2.57,9.5,65.92,65.92,0,0,0-.52,19.48,96.47,96.47,0,0,0,4.35,19.15c2.06,6.28,4.6,12.42,7.17,18.61a102,102,0,0,1-9.37-17.8,86.16,86.16,0,0,1-3.22-9.62,75,75,0,0,1-1.9-10,64.47,64.47,0,0,1-.32-10.21,50.91,50.91,0,0,1,5-19.65C318.59,312.83,320.08,309.87,321.43,306.8Z"/><path class="cls-21" d="M290,281.06a10,10,0,0,1-2.14,6.75,32.21,32.21,0,0,1-5,5.12c-.85.77-1.68,1.54-2.44,2.33a18.29,18.29,0,0,0-2,2.53,30.57,30.57,0,0,0-3,5.89c-.88,2.08-1.65,4.27-2.48,6.44s-1.68,4.33-2.6,6.47c-1.78,4.3-3.66,8.56-5.83,12.72,1-4.58,2.26-9.06,3.63-13.51s2.78-8.82,4.51-13.27a31.43,31.43,0,0,1,3.5-6.39,23.7,23.7,0,0,1,5.3-5,43.66,43.66,0,0,0,5.32-4.25A10.86,10.86,0,0,0,290,281.06Z"/><path class="cls-21" d="M319.12,329.77a10,10,0,0,1-.23,7.08,31.69,31.69,0,0,1-3.4,6.27c-.61,1-1.19,1.94-1.71,2.91a18.16,18.16,0,0,0-1.27,3,30.75,30.75,0,0,0-1.32,6.49c-.29,2.24-.43,4.56-.64,6.88s-.44,4.63-.75,6.93c-.55,4.62-1.2,9.24-2.16,13.83-.29-4.68-.28-9.34-.17-14s.28-9.25.74-14a31.05,31.05,0,0,1,1.64-7.1,23.53,23.53,0,0,1,3.74-6.27,44.1,44.1,0,0,0,4-5.53A10.92,10.92,0,0,0,319.12,329.77Z"/><path class="cls-21" d="M273.61,364.2A28.83,28.83,0,0,1,271,349.28a65.4,65.4,0,0,1,3-14.95l2.3-7.14c.81-2.36,1.53-4.72,2.24-7.09a62.57,62.57,0,0,0,2.64-14.59,38.42,38.42,0,0,1-.36,15.14c-.46,2.5-1.14,4.94-1.8,7.37l-2.16,7.19c-.75,2.36-1.42,4.73-2,7.12s-1.1,4.78-1.49,7.19A39.24,39.24,0,0,0,273.61,364.2Z"/><path class="cls-3" d="M210.76,202.52s-41-30.25-64.18,31c0,0,6.86,33.61,19.4,36.26,15.6,3.3,33.06-4.64,33.06-4.64S245,229.34,210.76,202.52Z"/><path class="cls-22" d="M208.93,203s-9.72-2.65-12.82-4.42-25.62.89-33.57,9.72-9.72,30-11,39.72,8.66,21.78,8.66,21.78-9.6-7-11.67-10.1,1.06,7.38,1.06,7.38S126.68,244,130.86,230s12.29-46.2,50.87-56.52c0,0,14.5-4.92,24.82,6.14,0,0,1.47-2,8.35.25s15.73,21.62,10.08,50.37c0,0-1.48,28,0,30.72s-12.29,8-10.08,15.91,5.65,21.44-4.18,33A178.29,178.29,0,0,0,195,331.23s7.12-25.56,3.44-32-9.1,0-12.78,7.87-3.93,17.2-3.93,17.2-5.16-14.25,0-22.12,15.48-40.54,15.48-40.54,17.2-10.08,20.15-26.05S218.92,213.51,208.93,203Z"/><path class="cls-23" d="M185.32,318.33A48.38,48.38,0,0,0,198,305.77a85.37,85.37,0,0,0,4.79-7.61c1.49-2.6,2.91-5.26,4.39-7.89-1.21,2.77-2.49,5.49-3.88,8.17a73,73,0,0,1-4.69,7.76,44.71,44.71,0,0,1-6,6.84A37.22,37.22,0,0,1,185.32,318.33Z"/><path class="cls-23" d="M221.8,261.57c-.25,4.83.43,9.61.46,14.48a29.44,29.44,0,0,1-.72,7.29,37.86,37.86,0,0,1-2.49,6.88c-1,2.2-2,4.37-2.8,6.64a46.79,46.79,0,0,1-2.84,6.72,20.09,20.09,0,0,1-4.62,5.67,19.46,19.46,0,0,1-6.31,3.56,20.7,20.7,0,0,0,10.26-9.59,59.78,59.78,0,0,0,2.66-6.67c.78-2.29,1.75-4.55,2.74-6.74a36.85,36.85,0,0,0,2.52-6.69,33.35,33.35,0,0,0,.84-7.08c.07-2.39,0-4.81-.06-7.23A50,50,0,0,1,221.8,261.57Z"/><path class="cls-23" d="M219.94,257.16c.56,5.79,1,11.58,1.45,17.38.24,2.89.41,5.8.61,8.69a35.22,35.22,0,0,1-.09,8.82,22,22,0,0,1-3.76,8c-1.67,2.4-3.36,4.73-4.86,7.2a42.54,42.54,0,0,0-3.81,7.75,29,29,0,0,0-1.83,8.45,27.21,27.21,0,0,1,1.37-8.61,42.73,42.73,0,0,1,3.61-8c1.41-2.57,3.17-4.93,4.77-7.32a21.15,21.15,0,0,0,3.53-7.69,34,34,0,0,0,.16-8.57c-.15-2.9-.34-5.8-.46-8.7C220.35,268.78,220.09,263,219.94,257.16Z"/><path class="cls-23" d="M215.91,255.35c.56,5.79,1,11.58,1.45,17.37.24,2.9.41,5.8.61,8.7a35.14,35.14,0,0,1-.09,8.81,21.87,21.87,0,0,1-3.76,8c-1.67,2.41-3.36,4.73-4.86,7.2a42.63,42.63,0,0,0-3.81,7.76,28.7,28.7,0,0,0-1.83,8.45A27.48,27.48,0,0,1,205,313a43.84,43.84,0,0,1,3.61-8c1.42-2.56,3.17-4.92,4.78-7.32A21.15,21.15,0,0,0,216.9,290a34.44,34.44,0,0,0,.16-8.56c-.16-2.91-.35-5.8-.46-8.71C216.32,267,216.06,261.16,215.91,255.35Z"/><path class="cls-23" d="M214.85,255.3c.29,3.18.52,6.37.78,9.56l.68,9.56c.24,3.19.41,6.38.61,9.57a46.75,46.75,0,0,1,0,9.68,25,25,0,0,1-3.69,9c-1.7,2.74-3.45,5.38-5,8.17a50.39,50.39,0,0,0-3.85,8.7,35.24,35.24,0,0,0-1.83,9.34,33.33,33.33,0,0,1,1.33-9.5,51.18,51.18,0,0,1,3.63-8.92c1.44-2.88,3.25-5.57,4.88-8.28a24.19,24.19,0,0,0,3.47-8.66,46.66,46.66,0,0,0,.09-9.46c-.15-3.2-.34-6.39-.45-9.58l-.39-9.58C215,261.69,214.91,258.5,214.85,255.3Z"/><path class="cls-23" d="M219.23,259.71c-.25,4.83.43,9.61.46,14.48a29.44,29.44,0,0,1-.72,7.29,38.14,38.14,0,0,1-2.49,6.88c-1,2.19-2,4.37-2.8,6.64a46.79,46.79,0,0,1-2.84,6.72,20.09,20.09,0,0,1-4.62,5.67,19.65,19.65,0,0,1-6.31,3.56,20.68,20.68,0,0,0,10.25-9.59,58,58,0,0,0,2.67-6.67c.78-2.29,1.75-4.55,2.74-6.74a37.6,37.6,0,0,0,2.52-6.69,33.43,33.43,0,0,0,.84-7.08c.07-2.4,0-4.81-.06-7.23A50,50,0,0,1,219.23,259.71Z"/><path class="cls-23" d="M217.42,248.54c.56,5.79,1,11.58,1.45,17.38.24,2.89.41,5.79.61,8.69a35.22,35.22,0,0,1-.09,8.82,21.9,21.9,0,0,1-3.76,8c-1.67,2.41-3.36,4.73-4.86,7.21a42.54,42.54,0,0,0-3.81,7.75,28.7,28.7,0,0,0-1.83,8.45,27.48,27.48,0,0,1,1.36-8.61,44.06,44.06,0,0,1,3.61-8c1.42-2.57,3.17-4.93,4.78-7.32a21.15,21.15,0,0,0,3.53-7.69,34.51,34.51,0,0,0,.16-8.57c-.16-2.9-.35-5.8-.46-8.71C217.83,260.16,217.57,254.35,217.42,248.54Z"/><path class="cls-23" d="M214.13,257.12c.3,3.35.53,6.69.79,10l.68,10c.24,3.35.41,6.7.61,10a53,53,0,0,1,0,10.15,26.53,26.53,0,0,1-3.65,9.51c-.84,1.47-1.73,2.89-2.58,4.32s-1.67,2.9-2.45,4.37a55,55,0,0,0-3.87,9.2,39.05,39.05,0,0,0-1.83,9.83,37.08,37.08,0,0,1,1.32-10,55,55,0,0,1,3.64-9.43c1.44-3.05,3.28-5.9,4.92-8.79a25.54,25.54,0,0,0,3.43-9.18,52.34,52.34,0,0,0,.08-9.94c-.15-3.35-.34-6.7-.45-10.05l-.38-10.06C214.31,263.83,214.18,260.48,214.13,257.12Z"/><path class="cls-23" d="M186,323.51a7.52,7.52,0,0,0,4.24-1.52,10.85,10.85,0,0,0,3-3.34,46.25,46.25,0,0,0,3.53-8.44c1-2.9,1.94-5.84,2.79-8.8s1.59-5.94,2.31-8.94a85.23,85.23,0,0,1-1.75,9.09c-.74,3-1.65,6-2.64,8.89-.52,1.46-1.07,2.9-1.65,4.34a22.37,22.37,0,0,1-2.11,4.17,11.38,11.38,0,0,1-3.29,3.34A7.46,7.46,0,0,1,186,323.51Z"/><path class="cls-23" d="M173.75,297a95.26,95.26,0,0,0,7.05-6.86l6.71-7.22a66.31,66.31,0,0,1,7.35-6.74,28.88,28.88,0,0,1,8.76-4.78,53,53,0,0,0-7.76,6c-2.38,2.2-4.65,4.54-6.91,6.92s-4.57,4.76-7.06,7A38.5,38.5,0,0,1,173.75,297Z"/><path class="cls-23" d="M169.3,287.19a13.39,13.39,0,0,0,4.79-2.07c1.48-.94,2.95-2,4.44-2.94,3-2,5.93-3.87,8.73-6a58.09,58.09,0,0,0,7.89-6.87,40.24,40.24,0,0,0,6.19-8.52,26.21,26.21,0,0,1-5,9.54,41.81,41.81,0,0,1-7.88,7.45,78,78,0,0,1-9.12,5.7c-1.57.86-3.13,1.69-4.77,2.47A11.3,11.3,0,0,1,169.3,287.19Z"/><path class="cls-23" d="M164.77,278a49.58,49.58,0,0,0,10.52-2.21c3.4-1.09,6.73-2.4,10.08-3.75s6.77-2.46,9.28-4.77c1.27-1.16,2.4-2.62,3.83-3.85a6.87,6.87,0,0,1,5.13-1.89,7.18,7.18,0,0,0-4.45,2.6c-1.17,1.29-2.1,2.85-3.4,4.24a16.22,16.22,0,0,1-4.61,3.35c-1.67.84-3.37,1.49-5,2.18a74.16,74.16,0,0,1-10.42,3.39A30.25,30.25,0,0,1,164.77,278Z"/><path class="cls-23" d="M178.72,309.92a11.52,11.52,0,0,1-1.65-3.24,13.71,13.71,0,0,1-.58-3.66,18.16,18.16,0,0,1,1.5-7.26,23.75,23.75,0,0,1,3.95-6.29,58.8,58.8,0,0,1,5.16-5.19,89,89,0,0,0,10.23-9.92,59.88,59.88,0,0,0,7.7-12,41.57,41.57,0,0,1-6.47,13,45.1,45.1,0,0,1-4.8,5.53c-1.74,1.71-3.56,3.3-5.32,4.91a60.87,60.87,0,0,0-5.07,4.95,24.76,24.76,0,0,0-4,5.69,18.87,18.87,0,0,0-1.93,6.65,13.7,13.7,0,0,0,.13,3.5A13.35,13.35,0,0,0,178.72,309.92Z"/><path class="cls-23" d="M172.38,292.48a9.26,9.26,0,0,0,3.79-2.14c1.11-.95,2.07-2,3.13-3.13a59.14,59.14,0,0,1,6.76-6.06q1.83-1.36,3.8-2.55a32.07,32.07,0,0,1,4.11-2,22.18,22.18,0,0,1,8.91-1.8,37.89,37.89,0,0,0-8.25,3.21,54.29,54.29,0,0,0-7.37,4.78c-2.37,1.75-4.62,3.68-6.9,5.6a29.75,29.75,0,0,1-3.61,2.78A8.08,8.08,0,0,1,172.38,292.48Z"/><path class="cls-23" d="M224.13,222.91l.44,7.28c.14,2.43.28,4.86.45,7.28.33,4.85.65,9.7,1.09,14.54l.61,7.28a16.74,16.74,0,0,1-.05,3.74,13,13,0,0,1-1.16,3.56c-.53,1.12-1.11,2.19-1.61,3.28a19.41,19.41,0,0,0-1.17,3.39,19.79,19.79,0,0,0-.45,7.2,18.68,18.68,0,0,1,0-7.3,19.79,19.79,0,0,1,1.07-3.54c.47-1.14,1-2.23,1.48-3.34a13.93,13.93,0,0,0,1-3.38,15.52,15.52,0,0,0,0-3.54l-.69-7.26c-.36-4.86-.7-9.72-.86-14.59S224,227.77,224.13,222.91Z"/><path class="cls-23" d="M222.38,248a12.65,12.65,0,0,0-.28,2.73,14.52,14.52,0,0,0,.31,2.71,41.86,41.86,0,0,0,1.49,5.27,37,37,0,0,1,1.46,5.37,28.42,28.42,0,0,1,.44,5.59,62.25,62.25,0,0,1-1.43,11c-.72,3.62-1.48,7.2-1.93,10.86,0-1.84.19-3.68.38-5.52s.52-3.65.79-5.47a80.72,80.72,0,0,0,1.19-10.9A32.78,32.78,0,0,0,223.16,259a41,41,0,0,1-1.24-5.42A12.22,12.22,0,0,1,222.38,248Z"/><path class="cls-23" d="M178.07,198c-2.39,4.21-4,8.74-6.29,13.08a30.48,30.48,0,0,1-4.15,6.15,38.71,38.71,0,0,1-5.59,4.87c-2,1.43-3.83,2.83-5.65,4.41a48.15,48.15,0,0,1-5.85,4.45,19.16,19.16,0,0,1-14.27,2.42,21.32,21.32,0,0,0,13.42-3.73,59.28,59.28,0,0,0,5.46-4.57,72.75,72.75,0,0,1,5.7-4.58,39.15,39.15,0,0,0,5.39-4.55,33.15,33.15,0,0,0,4.19-5.64C172.91,206.22,175,201.73,178.07,198Z"/><path class="cls-23" d="M171.72,197.78q-3.24,8.11-6.83,16.06c-1.17,2.66-2.41,5.29-3.61,7.94a35.38,35.38,0,0,1-4.42,7.77,22.25,22.25,0,0,1-7.34,5.28c-2.67,1.27-5.26,2.44-7.78,3.83-5,2.78-9.72,6.24-13,11.08a27,27,0,0,1,5.22-7,40.47,40.47,0,0,1,7-5.38c2.48-1.59,5.18-2.85,7.71-4.17a20.93,20.93,0,0,0,6.67-4.89,34.76,34.76,0,0,0,4.25-7.3c1.3-2.6,2.57-5.21,3.91-7.79Q167.44,205.4,171.72,197.78Z"/><path class="cls-23" d="M172.39,196.72c-2.39,4.22-4,8.74-6.29,13.08A30.2,30.2,0,0,1,162,216a37.52,37.52,0,0,1-5.59,4.87c-2,1.43-3.83,2.84-5.65,4.42a48.51,48.51,0,0,1-5.86,4.45,19.17,19.17,0,0,1-14.26,2.41A21.33,21.33,0,0,0,144,228.38a58.08,58.08,0,0,0,5.47-4.57,72.74,72.74,0,0,1,5.69-4.59,37.34,37.34,0,0,0,5.4-4.55,32.76,32.76,0,0,0,4.19-5.64C167.23,205,169.3,200.49,172.39,196.72Z"/><path class="cls-23" d="M162.49,183.09q-.3,8.73-1,17.42c-.2,2.9-.47,5.79-.71,8.69a34.83,34.83,0,0,1-1.53,8.81,22.37,22.37,0,0,1-5.11,7.46c-2.08,2.09-4.13,4.07-6,6.23-3.75,4.3-7,9.16-8.49,14.83a26.57,26.57,0,0,1,2.52-8.39,39.73,39.73,0,0,1,4.77-7.44c1.79-2.33,3.91-4.43,5.84-6.53a20.87,20.87,0,0,0,4.62-6.86,35,35,0,0,0,1.52-8.3c.35-2.89.66-5.78,1.05-8.66Q161,191.71,162.49,183.09Z"/><path class="cls-23" d="M176.19,199.07c-1.91,4.49-3.94,8.91-5.95,13.33l-6,13.27-3,6.65a17,17,0,0,1-2,3.31,13.14,13.14,0,0,1-2.86,2.59,33.9,33.9,0,0,0-5.73,4.33,21.27,21.27,0,0,0-4.08,5.91,17.93,17.93,0,0,1,3.35-6.56,19.58,19.58,0,0,1,2.63-2.68c1-.8,2-1.5,2.89-2.24a14.09,14.09,0,0,0,2.41-2.41,15.92,15.92,0,0,0,1.63-3c.94-2.22,1.92-4.47,2.91-6.69,2-4.44,4.15-8.83,6.45-13.13S173.55,203.17,176.19,199.07Z"/><path class="cls-23" d="M165.37,210.38c-2.36,2.93-2.85,6.59-3.5,10.18A35.24,35.24,0,0,1,160.6,226a28.55,28.55,0,0,1-2.35,5.19,57.13,57.13,0,0,1-6.73,8.92c-2.44,2.77-4.92,5.45-7.27,8.31a61,61,0,0,1,6.06-9.29,92.35,92.35,0,0,0,6.21-8.94,34.27,34.27,0,0,0,3.83-10,35.23,35.23,0,0,1,1.71-5.34A11.64,11.64,0,0,1,165.37,210.38Z"/><path class="cls-23" d="M174.56,195.48c-2.2,3.07-2.53,6.64-3.12,10.25a31.27,31.27,0,0,1-1.2,5.56,26.13,26.13,0,0,1-2.37,5.28,50.43,50.43,0,0,1-6.86,8.92c-2.5,2.73-5,5.31-7.57,8.06A51.1,51.1,0,0,1,159.2,224c2.12-3,4.31-5.89,6.07-9a31.09,31.09,0,0,0,2.29-4.72c.65-1.6,1.08-3.33,1.6-5.11A34.21,34.21,0,0,1,171,199.9,11.15,11.15,0,0,1,174.56,195.48Z"/><path class="cls-23" d="M190.42,196.27c-3.6,1.08-6.06,3.82-8.63,6.42a36.81,36.81,0,0,1-4.14,3.81,28.85,28.85,0,0,1-4.87,2.95,57.24,57.24,0,0,1-10.6,3.57c-3.57.9-7.13,1.71-10.69,2.74a61,61,0,0,1,10.25-4.24,90.91,90.91,0,0,0,10.17-3.88,33.52,33.52,0,0,0,8.81-6.08,36.62,36.62,0,0,1,4.43-3.44A11.52,11.52,0,0,1,190.42,196.27Z"/><path class="cls-23" d="M190.42,193.24c-3.6,1.08-6.06,3.82-8.63,6.42a36.81,36.81,0,0,1-4.14,3.81,28.85,28.85,0,0,1-4.87,2.95,57.24,57.24,0,0,1-10.6,3.57c-3.57.9-7.13,1.71-10.69,2.74a61,61,0,0,1,10.25-4.24,90.91,90.91,0,0,0,10.17-3.88,33.52,33.52,0,0,0,8.81-6.08,36.62,36.62,0,0,1,4.43-3.44A11.52,11.52,0,0,1,190.42,193.24Z"/><path class="cls-23" d="M190.42,190.89c-3.6,1.08-6.06,3.82-8.63,6.42a35.9,35.9,0,0,1-4.14,3.81,28.85,28.85,0,0,1-4.87,2.95,57.24,57.24,0,0,1-10.6,3.57c-3.57.91-7.13,1.71-10.69,2.74a61,61,0,0,1,10.25-4.24,92.86,92.86,0,0,0,10.17-3.87,33.8,33.8,0,0,0,8.81-6.09,36.62,36.62,0,0,1,4.43-3.44A11.52,11.52,0,0,1,190.42,190.89Z"/><path class="cls-23" d="M186.52,312.94a5.75,5.75,0,0,1,.37-4.46,19.41,19.41,0,0,1,2.53-3.81A70.82,70.82,0,0,1,202.36,292a64,64,0,0,1,7.58-4.95c-1.2.92-2.43,1.79-3.59,2.73s-2.36,1.85-3.51,2.82c-2.28,1.94-4.53,3.92-6.66,6s-4.19,4.26-6.18,6.51a19.34,19.34,0,0,0-2.67,3.54A5.75,5.75,0,0,0,186.52,312.94Z"/><path class="cls-23" d="M191.54,326.41a1.44,1.44,0,0,1-1.28-.65,4.37,4.37,0,0,1-.65-1.36c-.24-1-.42-1.9-.58-2.87a38,38,0,0,1-.46-5.85,46.17,46.17,0,0,1,.39-5.87,54.45,54.45,0,0,1,1.17-5.79,52.52,52.52,0,0,1,4.34-11,83.8,83.8,0,0,1,6.23-9.94L203,280l.41,3.8a33.88,33.88,0,0,1-.48,10.54,34.5,34.5,0,0,1-3.64,9.81,31.88,31.88,0,0,1-6.41,8.17,33.35,33.35,0,0,1-8.54,5.65,42.08,42.08,0,0,0,7.55-6.62,35.13,35.13,0,0,0,5.4-8.23,36.51,36.51,0,0,0,2.93-9.29,34.46,34.46,0,0,0,.24-9.67l2.68.68a103.13,103.13,0,0,0-6.1,9.58,57.72,57.72,0,0,0-4.55,10.31,48.1,48.1,0,0,0-1.47,5.45,45.65,45.65,0,0,0-.89,5.6,43.11,43.11,0,0,0-.2,5.69c0,.95.08,1.92.18,2.85a4.07,4.07,0,0,0,.38,1.33A1.33,1.33,0,0,0,191.54,326.41Z"/><path class="cls-23" d="M190.43,175.13c-3.62,0-7.23-.39-10.84-.47a37.56,37.56,0,0,0-10.67,1.13,39,39,0,0,0-9.92,4,37.52,37.52,0,0,0-8.45,6.53,39,39,0,0,0-6.36,8.6c-1.75,3.13-3.22,6.44-4.81,9.69l-4.71,9.78-4.8,9.73,4.36-9.94,4.45-9.9c1.48-3.3,3-6.6,4.72-9.8a39.69,39.69,0,0,1,6.44-8.86,38.71,38.71,0,0,1,8.71-6.62,37,37,0,0,1,10.2-3.95,37.48,37.48,0,0,1,10.86-.87C183.24,174.41,186.82,174.94,190.43,175.13Z"/><path class="cls-23" d="M166.85,185.86a84.45,84.45,0,0,0-16.32,9.07,110.76,110.76,0,0,0-14.08,12.26c-4.46,4.36-9,8.65-12.47,13.83a27.29,27.29,0,0,0-3.8,8.41,12.84,12.84,0,0,0,.78,9.06c-1.7-2.68-1.84-6.09-1.26-9.16a27.72,27.72,0,0,1,3.63-8.72c3.37-5.39,8-9.72,12.42-14.13a103.63,103.63,0,0,1,14.34-12.18A72.22,72.22,0,0,1,166.85,185.86Z"/><path class="cls-23" d="M170.39,285.17a13.71,13.71,0,0,1,3.67-3.73,23.06,23.06,0,0,1,4.69-2.4,92.11,92.11,0,0,1,10.08-2.79,25.78,25.78,0,0,0,9.31-4.07,27.25,27.25,0,0,0,3.62-3.66,12.22,12.22,0,0,1,2-1.75,5.24,5.24,0,0,1,2.43-.94,5.72,5.72,0,0,0-2.28,1.15,12.42,12.42,0,0,0-1.76,1.86,27.52,27.52,0,0,1-3.5,3.94c-2.74,2.33-6.19,3.53-9.55,4.43s-6.8,1.46-10.07,2.55A18.29,18.29,0,0,0,170.39,285.17Z"/><path class="cls-23" d="M174.66,300.88a15.56,15.56,0,0,1-.3-6.52,16.37,16.37,0,0,1,2.41-6.14,16.79,16.79,0,0,1,4.71-4.68,47.63,47.63,0,0,1,5.72-3.24c2-1,3.91-1.88,5.74-3a30.51,30.51,0,0,0,5.07-3.92,29.19,29.19,0,0,0,4.12-4.95,30.15,30.15,0,0,0,3-5.73,27.49,27.49,0,0,1-6.61,11.22,26.28,26.28,0,0,1-5.13,4.15c-1.87,1.18-3.84,2.15-5.77,3.12a47.57,47.57,0,0,0-5.66,3.1,17.6,17.6,0,0,0-4.58,4.36,15.92,15.92,0,0,0-2.57,5.81A16.12,16.12,0,0,0,174.66,300.88Z"/><path class="cls-24" d="M608.53,256.32s-21.27,23.24-31.81,20.21c0,0,14.69,28.53-15.23,69.76,0,0-10.88,36.37-1.65,49.16,0,0-8.86,59.13-10.18,64.87,0,0-4,12.8,19,13.68s56.92,5.26,62.66-2.67c0,0,5.73-36.6,13.23-43.22s18.54-57.37,18.54-57.37S673.66,327.5,649,302.79,620.63,284.43,608.53,256.32Z"/><path class="cls-25" d="M608.53,256.32s-19.43,21.28-31.81,20.21c0,0,7.51,11.49,2.06,34.48s-21.23,34.4-18.66,43l27.14-45,37.79-25.27S606.64,268.71,608.53,256.32Z"/><path class="cls-5" d="M631.3,471.33s4.11,29.56,8.31,33.76a10.06,10.06,0,0,1,1.13,7H538s9.46-47.39,10.47-48.13c0,0,8.6,12.48,37,11S631.3,471.33,631.3,471.33Z"/><path class="cls-26" d="M633.7,289.78s-33.19,14.1-52.83,106.11l-1,9.57s-34.08-13.23-42-18.24c-15.5,2.57-15.32,15.33-15.32,15.33s52.71,50.31,62.86,50.27c5.75,0,30.48-25.14,33.64-30.51,2.81-4.77,18.38-26.34,19-36.1a21.91,21.91,0,0,1,2.84-9.22c7.33-13.22,12.11-17.84,17-26.81,5.7-10.37,7.74-25.83,1.67-38.74C652.62,296.77,638,291.22,633.7,289.78Z"/><path class="cls-24" d="M638.52,294.83c-5.73-.53-10.3,2.79-14.18,5.6C608.26,312.1,605.41,331.9,604.77,338c0,0-23.78,49.53-23.23,64.58,0,0-.5.53,0,4.67,0,0-32.1-13.14-40.56-17.26s-31.88-27.54-31.88-27.54-.65-9.13,5.2-11.39a22.93,22.93,0,0,0,2.61-13.66s1.62-7.89,3.57-7.69,2.61-10.2.33-11.18-6.83,6.62-6.83,6.62-4,8.35-4.9,10-5.19-1.62-5.19-1.62-1.62-7.91,0-8.35,6.51,1.84,6.51,1.84,2.81-1.23,1.42-2.28-9.41-4.64-10.58-3.48-5.11-1.51-14.52,21.26,21.5,45,21.5,45,48.72,53.93,66.64,58c0,0,9.75,9.44,16.35,0,23.4-16.93,33.47-33.4,38.28-45.75,2.21-5.67,4.26-12.91,9.63-23.8a163.41,163.41,0,0,1,18.74-29.48h0l2.59-5.92C663.5,333.37,656.37,296.47,638.52,294.83Z"/><path class="cls-24" d="M608.53,256.32s-15.29,19.84-31.81,20.21-29.22-24.2-29.22-24.2-1.93-23.3-7.6-24.19,5.54-33.68,17.71-33.57,13.88-1.92,30.26,11c0,0,6,19.49,20.66,26.46C608.53,232,612.81,240.86,608.53,256.32Z"/><path class="cls-27" d="M559.49,197.06s13.63-10,26.41,10c14.61,22.92,22.63,25,22.63,25s2,14.68,0,24.28,14.63,28.7,33.92,39.48c19.64,11,22.41,43.92,22.41,43.92s6-12.93,4.31-18.1-6.32-27.56-6.32-27.56-19.52-33.58-28.71-31.72c0,0,0-30.84-6.89-35.74s-20-34.14-20-34.14-34.61-20.89-47.78-10.26-31,20-27.57,44.4,6.9,27.26,6.9,27.26,18.62,9.59,21.82,31.35a490.55,490.55,0,0,0-4.13,51.6c-6.32,27,.68,37.07.68,37.07s1.15-17.79,5.74-29S578.44,319.36,579,309s3.45-28.74-2.29-32.47c-3-1.92-7.38-2.56-12.56-5.84-2.09-1.33-12.55-7.9-16-19.45-1.26-4.26,0-4.1-1.67-10.89-2.12-8.89-4.15-9-4.75-14.81,0,0-.24-2.28,1.78-15.63h0S546.23,202.07,559.49,197.06Z"/></g></g></svg>